<?xml version="1.0" encoding="UTF-8" standalone="no"?>
<svg
   xmlns:dc="http://purl.org/dc/elements/1.1/"
   xmlns:cc="http://creativecommons.org/ns#"
   xmlns:rdf="http://www.w3.org/1999/02/22-rdf-syntax-ns#"
   xmlns:svg="http://www.w3.org/2000/svg"
   xmlns="http://www.w3.org/2000/svg"
   xmlns:sodipodi="http://sodipodi.sourceforge.net/DTD/sodipodi-0.dtd"
   xmlns:inkscape="http://www.inkscape.org/namespaces/inkscape"
   version="1.1"
   width="76.0106"
   height="76.0106"
   viewBox="0 0 76.01 76.01"
   enable-background="new 0 0 76.01 76.01"
   xml:space="preserve"
   id="svg2"
   inkscape:version="0.48.2 r9819"
   sodipodi:docname="appbar.layer.add.svg"><metadata
   id="metadata10"><rdf:RDF><cc:Work
       rdf:about=""><dc:format>image/svg+xml</dc:format><dc:type
         rdf:resource="http://purl.org/dc/dcmitype/StillImage" /></cc:Work></rdf:RDF></metadata><defs
   id="defs8" /><sodipodi:namedview
   pagecolor="#ffffff"
   bordercolor="#666666"
   borderopacity="1"
   objecttolerance="10"
   gridtolerance="10"
   guidetolerance="10"
   inkscape:pageopacity="0"
   inkscape:pageshadow="2"
   inkscape:window-width="1049"
   inkscape:window-height="899"
   id="namedview6"
   showgrid="false"
   inkscape:zoom="8.8536174"
   inkscape:cx="38.005299"
   inkscape:cy="38.005299"
   inkscape:window-x="0"
   inkscape:window-y="0"
   inkscape:window-maximized="0"
   inkscape:current-layer="svg2" />
	<path
   d="m 17.496632,34.925058 8.787311,0 0,15.398446 14.645581,0 0,9.23903 -14.645581,0 0,15.398445 -8.787311,0 0,-15.398445 -14.6453952,0 0,-9.23903 14.6453952,0 0,-15.398446 z M 38.005292,1.0440802 73.159348,19.524667 38.005292,38.005252 l -8.791751,-4.621848 0,-1.538347 -2.926268,0 L 2.8512368,19.524667 38.005292,1.0440802 z M 73.159348,56.485839 38.005292,74.96662 l -8.791751,-4.622043 0,-7.70185 8.786386,0 0.0054,0.0033 0.0064,-0.0033 5.8468,0 1.85e-4,-3.073776 17.582577,-9.243307 11.718019,6.160195 z m 0,-18.480587 -29.300411,15.40331 0,-6.165059 -5.85864,0 -8.786756,-1.94e-4 0,-7.699709 8.791751,4.621847 23.436037,-12.32039 11.718019,6.160195 z m -70.3081112,0 11.7163532,-6.159417 -5.54e-4,6.159417 1.85e-4,6.159223 -11.7159842,-6.159223 z"
   id="path4"
   inkscape:connector-curvature="0"
   style="fill:#000000;fill-opacity:1;stroke-width:0.2;stroke-linejoin:round" />
</svg>